<?xml version="1.0" encoding="utf-8"?><svg xmlns="http://www.w3.org/2000/svg" xmlns:xlink="http://www.w3.org/1999/xlink" width="1495" height="754" preserveAspectRatio="xMidYMid" viewBox="0 0 1495 754" style="z-index:1;margin-right:-2px;display:block;background-repeat-y:initial;background-repeat-x:initial;background-color:rgb(255, 255, 255);animation-play-state:paused" ><g transform="translate(747.5,377) scale(1,1) translate(-747.5,-377)" style="transform:matrix(1, 0, 0, 1, 0, 0);animation-play-state:paused" ><linearGradient id="lg-0.4528039735264211" x1="0" x2="1" y1="0" y2="0" style="animation-play-state:paused" ><stop stop-color="#ff00ff" offset="0" style="animation-play-state:paused" ></stop>

  
<stop stop-color="#00ffff" offset="1" style="animation-play-state:paused" ></stop></linearGradient>
<path d="M 0 0 M 0 700.351 Q 149.5 643.511 299 642.695 T 598 599.949 T 897 587.554 T 1196 537.853 T 1495 518.421 L 1495 186.345 Q 1345.5 228.035 1196 227.201 T 897 184.414 T 598 161.645 T 299 109.283 T 0 103.574 Z" fill="url(#lg-0.4528039735264211)" opacity="0.4" style="opacity:0.4;animation-play-state:paused" ></path>
<path d="M 0 0 M 0 665.818 Q 149.5 677.503 299 675.173 T 598 622.465 T 897 585.777 T 1196 570.327 T 1495 546.361 L 1495 183.23 Q 1345.5 175.576 1196 172.707 T 897 168.596 T 598 102.263 T 299 94.4717 T 0 51.6285 Z" fill="url(#lg-0.4528039735264211)" opacity="0.4" style="opacity:0.4;animation-play-state:paused" ></path>
<path d="M 0 0 M 0 656.2 Q 149.5 632.762 299 628.21 T 598 594.921 T 897 591.693 T 1196 555.817 T 1495 562.697 L 1495 251.704 Q 1345.5 185.409 1196 180.703 T 897 152.302 T 598 150.674 T 299 109.489 T 0 93.1763 Z" fill="url(#lg-0.4528039735264211)" opacity="0.4" style="opacity:0.4;animation-play-state:paused" ></path>
<path d="M 0 0 M 0 640.133 Q 149.5 630.614 299 627.834 T 598 624.702 T 897 562.799 T 1196 555.046 T 1495 542.251 L 1495 172.98 Q 1345.5 173.564 1196 169.876 T 897 145.933 T 598 158.804 T 299 129.36 T 0 87.0656 Z" fill="url(#lg-0.4528039735264211)" opacity="0.4" style="opacity:0.4;animation-play-state:paused" ></path></g></svg>