<svg width="32" height="33" viewBox="0 0 32 33" fill="none" xmlns="http://www.w3.org/2000/svg">
<g clip-path="url(#clip0_276_2)">
<path fill-rule="evenodd" clip-rule="evenodd" d="M0 16.5893C0 24.544 5.77733 31.1587 13.3333 32.5V20.944H9.33333V16.5H13.3333V12.944C13.3333 8.944 15.9107 6.72267 19.556 6.72267C20.7107 6.72267 21.956 6.9 23.1107 7.07733V11.1667H21.0667C19.1107 11.1667 18.6667 12.144 18.6667 13.3893V16.5H22.9333L22.2227 20.944H18.6667V32.5C26.2227 31.1587 32 24.5453 32 16.5893C32 7.74 24.8 0.5 16 0.5C7.2 0.5 0 7.74 0 16.5893Z" fill="white"/>
</g>
<defs>
<clipPath id="clip0_276_2">
<rect width="32" height="32" fill="white" transform="translate(0 0.5)"/>
</clipPath>
</defs>
</svg>
