<svg width="32" height="32" viewBox="0 0 20 21" fill="none" xmlns="http://www.w3.org/2000/svg">
<path d="M10 8.11875C9.52907 8.11893 9.06877 8.25873 8.67729 8.5205C8.28582 8.78226 7.98074 9.15422 7.80065 9.58935C7.62055 10.0245 7.57352 10.5032 7.66551 10.9651C7.75749 11.427 7.98435 11.8512 8.31741 12.1841C8.65047 12.517 9.07477 12.7438 9.53666 12.8356C9.99856 12.9274 10.4773 12.8802 10.9124 12.6999C11.3474 12.5196 11.7193 12.2144 11.9809 11.8229C12.2425 11.4313 12.3821 10.9709 12.3821 10.5C12.3817 9.86844 12.1305 9.2629 11.6839 8.81641C11.2372 8.36992 10.6316 8.11899 10 8.11875ZM15.5674 6.28839C15.4462 5.98118 15.2631 5.70215 15.0296 5.46862C14.7961 5.23509 14.517 5.05203 14.2098 4.9308C13.2723 4.56071 11.0402 4.64375 10 4.64375C8.95982 4.64375 6.72991 4.55759 5.78973 4.9308C5.48252 5.05203 5.20349 5.23509 4.96996 5.46862C4.73642 5.70215 4.55337 5.98118 4.43214 6.28839C4.0625 7.22589 4.14509 9.46027 4.14509 10.4996C4.14509 11.5388 4.0625 13.7705 4.43393 14.7112C4.55515 15.0184 4.73821 15.2974 4.97174 15.5309C5.20528 15.7645 5.4843 15.9475 5.79152 16.0688C6.72902 16.4388 8.96116 16.3558 10.0018 16.3558C11.0424 16.3558 13.2714 16.442 14.2116 16.0688C14.5188 15.9475 14.7978 15.7645 15.0314 15.5309C15.2649 15.2974 15.448 15.0184 15.5692 14.7112C15.942 13.7737 15.8562 11.5393 15.8562 10.5C15.8562 9.46071 15.942 7.22946 15.5692 6.28884L15.5674 6.28839ZM10 14.1607C9.27598 14.1607 8.56822 13.946 7.96622 13.5438C7.36421 13.1415 6.89501 12.5698 6.61794 11.9009C6.34087 11.232 6.26838 10.4959 6.40963 9.78583C6.55088 9.07572 6.89952 8.42344 7.41148 7.91148C7.92344 7.39952 8.57572 7.05088 9.28583 6.90963C9.99594 6.76838 10.732 6.84087 11.4009 7.11794C12.0698 7.39501 12.6415 7.86421 13.0438 8.46622C13.446 9.06822 13.6607 9.77598 13.6607 10.5C13.6613 10.9809 13.567 11.4572 13.3833 11.9016C13.1995 12.346 12.9299 12.7498 12.5898 13.0898C12.2498 13.4299 11.846 13.6995 11.4016 13.8833C10.9572 14.067 10.4809 14.1613 10 14.1607ZM13.8116 7.54018C13.6426 7.54027 13.4773 7.49023 13.3368 7.39639C13.1962 7.30256 13.0866 7.16914 13.0219 7.01301C12.9571 6.85689 12.9401 6.68507 12.9731 6.51929C13.006 6.35351 13.0873 6.20122 13.2068 6.08167C13.3263 5.96213 13.4785 5.88071 13.6443 5.8477C13.8101 5.81469 13.9819 5.83159 14.138 5.89625C14.2942 5.96091 14.4277 6.07043 14.5216 6.21095C14.6155 6.35148 14.6656 6.5167 14.6656 6.68571C14.6661 6.79795 14.6444 6.90918 14.6018 7.01301C14.5592 7.11685 14.4965 7.21125 14.4173 7.2908C14.3381 7.37035 14.244 7.43349 14.1404 7.47659C14.0368 7.51969 13.9256 7.54191 13.8134 7.54196L13.8116 7.54018ZM17.8571 0.5H2.14286C1.57454 0.5 1.02949 0.725765 0.627628 1.12763C0.225765 1.52949 0 2.07454 0 2.64286L0 18.3571C0 18.9255 0.225765 19.4705 0.627628 19.8724C1.02949 20.2742 1.57454 20.5 2.14286 20.5H17.8571C18.4255 20.5 18.9705 20.2742 19.3724 19.8724C19.7742 19.4705 20 18.9255 20 18.3571V2.64286C20 2.07454 19.7742 1.52949 19.3724 1.12763C18.9705 0.725765 18.4255 0.5 17.8571 0.5ZM17.0929 13.4464C17.0353 14.5906 16.7741 15.6045 15.9388 16.4375C15.1036 17.2705 14.0906 17.5371 12.9478 17.5915C11.7688 17.658 8.23393 17.658 7.05491 17.5915C5.91071 17.5339 4.90045 17.2723 4.06384 16.4375C3.22723 15.6027 2.96429 14.5884 2.90982 13.4464C2.8433 12.267 2.8433 8.7317 2.90982 7.55357C2.96741 6.40938 3.22545 5.39554 4.06384 4.5625C4.90223 3.72946 5.91518 3.46607 7.05491 3.41161C8.23393 3.34509 11.7688 3.34509 12.9478 3.41161C14.092 3.4692 15.1054 3.7308 15.9388 4.56563C16.7723 5.40045 17.0384 6.41473 17.0929 7.55893C17.1594 8.73393 17.1594 12.2661 17.0929 13.4464Z" fill="white"/>
</svg>
