<svg width="32" height="32" viewBox="0 0 20 21" fill="none" xmlns="http://www.w3.org/2000/svg">
<path d="M10 0.5C4.47708 0.5 0 4.97708 0 10.5C0 16.0229 4.47708 20.5 10 20.5C15.5229 20.5 20 16.0229 20 10.5C20 4.97708 15.5229 0.5 10 0.5ZM7.55208 14.6448H5.52708V8.12812H7.55208V14.6448ZM6.52708 7.32812C5.8875 7.32812 5.47396 6.875 5.47396 6.31458C5.47396 5.74271 5.9 5.30312 6.55312 5.30312C7.20625 5.30312 7.60625 5.74271 7.61875 6.31458C7.61875 6.875 7.20625 7.32812 6.52708 7.32812ZM14.9479 14.6448H12.9229V11.0333C12.9229 10.1927 12.6292 9.62187 11.8969 9.62187C11.3375 9.62187 11.0052 10.0083 10.8583 10.3802C10.8042 10.5125 10.7906 10.7 10.7906 10.8865V14.6437H8.76458V10.2063C8.76458 9.39271 8.73854 8.7125 8.71146 8.12708H10.4708L10.5635 9.03229H10.6042C10.8708 8.60729 11.524 7.98021 12.6167 7.98021C13.949 7.98021 14.9479 8.87292 14.9479 10.7917V14.6448Z" fill="white"/>
</svg>
